0
SECTION
2
HEADER
9
$INSUNITS
70
4
9
$ACADVER
1
AC1014
9
$HANDSEED
5
FFFF
0
ENDSEC
0
SECTION
2
TABLES
0
TABLE
2
VPORT
5
8
100
AcDbSymbolTable
0
ENDTAB
0
TABLE
2
LTYPE
5
5
100
AcDbSymbolTable
0
LTYPE
5
14
100
AcDbSymbolTableRecord
100
AcDbLinetypeTableRecord
2
BYBLOCK
70
0
0
LTYPE
5
15
100
AcDbSymbolTableRecord
100
AcDbLinetypeTableRecord
2
BYLAYER
70
0
0
LTYPE
5
16
100
AcDbSymbolTableRecord
100
AcDbLinetypeTableRecord
2
DASHED
70
0
3
Dashed __ __ __ __ __ __ __ __ __ __ __ __ __ _
72
65
73
2
40
0.75
49
0.5
74
0
49
-0.25
74
0
0
ENDTAB
0
TABLE
2
LAYER
5
2
100
AcDbSymbolTable
70
2
0
LAYER
5
50
100
AcDbSymbolTableRecord
100
AcDbLayerTableRecord
2
0
70
0
62
7
6
CONTINUOUS
0
ENDTAB
0
TABLE
2
STYLE
5
3
100
AcDbSymbolTable
70
1
0
STYLE
5
11
100
AcDbSymbolTableRecord
100
AcDbTextStyleTableRecord
2
STANDARD
70
0
0
ENDTAB
0
TABLE
2
VIEW
5
6
100
AcDbSymbolTable
70
0
0
ENDTAB
0
TABLE
2
UCS
5
7
100
AcDbSymbolTable
70
0
0
ENDTAB
0
TABLE
2
APPID
5
9
100
AcDbSymbolTable
70
2
0
APPID
5
12
100
AcDbSymbolTableRecord
100
AcDbRegAppTableRecord
2
ACAD
70
0
0
ENDTAB
0
TABLE
2
DIMSTYLE
5
A
100
AcDbSymbolTable
70
1
0
ENDTAB
0
TABLE
2
BLOCK_RECORD
5
1
100
AcDbSymbolTable
70
1
0
BLOCK_RECORD
5
1F
100
AcDbSymbolTableRecord
100
AcDbBlockTableRecord
2
*MODEL_SPACE
0
BLOCK_RECORD
5
1B
100
AcDbSymbolTableRecord
100
AcDbBlockTableRecord
2
*PAPER_SPACE
0
ENDTAB
0
ENDSEC
0
SECTION
2
BLOCKS
0
BLOCK
5
20
100
AcDbEntity
100
AcDbBlockBegin
2
*MODEL_SPACE
0
ENDBLK
5
21
100
AcDbEntity
100
AcDbBlockEnd
0
BLOCK
5
1C
100
AcDbEntity
100
AcDbBlockBegin
2
*PAPER_SPACE
0
ENDBLK
5
1D
100
AcDbEntity
100
AcDbBlockEnd
0
ENDSEC
0
SECTION
2
ENTITIES
0
SPLINE
5
100
100
AcDbEntity
8
0
100
AcDbSpline
70
0
71
3
72
16
73
12
74
0
42
0.000000001
43
0.0000000001
44
0.0000000001
40
0
40
0
40
0
40
0
40
0.07812889467738536
40
0.07812889467738536
40
0.1562577893547695
40
0.1562577893547695
40
0.23438668403215362
40
0.23438668403215362
40
0.27979435050292678
40
0.27979435050292678
40
0.32520201697370094
40
0.32520201697370094
40
0.32520201697370094
40
0.32520201697370094
10
16.804362541910951
20
-136.71172910330608
30
0
10
16.676413762764778
20
-136.93856100572282
30
0
10
16.505382929151249
20
-137.13823302979452
30
0
10
16.096410778541056
20
-137.46077944223973
30
0
10
15.86237945821127
20
-137.58057011110887
30
0
10
15.36157217002544
20
-137.72370105904096
30
0
10
15.099584192805505
20
-137.74567292822928
30
0
10
14.690331655718868
20
-137.7000422343385
30
0
10
14.542293893944233
20
-137.66624776591786
30
0
10
14.256687364680632
20
-137.56591351137811
30
0
10
14.120039463820344
20
-137.49969722790075
30
0
10
13.992173510535046
20
-137.41870456750209
30
0
0
LINE
5
101
100
AcDbEntity
8
0
100
AcDbLine
10
16.804362541910951
20
-136.71172910330608
30
0
11
26.945979349947322
21
-118.7323294599494
31
0
0
ARC
5
102
100
AcDbEntity
8
0
100
AcDbCircle
10
13.010121994018604
20
-110.87154834385105
30
0
40
16.000000000000028
210
-0
220
0
230
1
100
AcDbArc
50
330.57401497128859
51
360
0
LINE
5
103
100
AcDbEntity
8
0
100
AcDbLine
10
29.010121994018636
20
-110.87154834385106
30
0
11
29.010121994018611
21
-107.98000000000002
31
0
0
LINE
5
104
100
AcDbEntity
8
0
100
AcDbLine
10
29.010121994018611
20
-107.98000000000002
30
0
11
22.20212247085577
21
-107.98000000000003
31
0
0
ARC
5
105
100
AcDbEntity
8
0
100
AcDbCircle
10
22.202122470855752
20
-106.98000000000002
30
0
40
0.99999999999999645
210
0
220
0
230
1
100
AcDbArc
50
180
51
270.00000000000102
0
LINE
5
106
100
AcDbEntity
8
0
100
AcDbLine
10
21.202122470855755
20
-106.98000000000002
30
0
11
21.202122470855773
21
-99.030000000000001
31
0
0
ARC
5
107
100
AcDbEntity
8
0
100
AcDbCircle
10
22.20212247085577
20
-99.030000000000001
30
0
40
0.99999999999999645
210
0
220
-0
230
1
100
AcDbArc
50
90
51
180
0
LINE
5
108
100
AcDbEntity
8
0
100
AcDbLine
10
22.20212247085577
20
-98.030000000000001
30
0
11
29.010121994018611
21
-98.030000000000001
31
0
0
LINE
5
109
100
AcDbEntity
8
0
100
AcDbLine
10
29.010121994018611
20
-98.030000000000001
30
0
11
29.010121994018611
21
-79.774141016217442
31
0
0
ARC
5
110
100
AcDbEntity
8
0
100
AcDbCircle
10
28.260121994018625
20
-79.774141016217442
30
0
40
0.74999999999998401
210
0
220
-0
230
1
100
AcDbArc
50
0
51
90
0
LINE
5
111
100
AcDbEntity
8
0
100
AcDbLine
10
28.260121994018625
20
-79.024141016217442
30
0
11
25.390122470855765
21
-79.024141016217428
31
0
0
LINE
5
112
100
AcDbEntity
8
0
100
AcDbLine
10
25.390122470855765
20
-79.024141016217428
30
0
11
25.390122470855783
21
-85.822000000000017
31
0
0
ARC
5
113
100
AcDbEntity
8
0
100
AcDbCircle
10
24.390122470855786
20
-85.822000000000017
30
0
40
0.99999999999999645
210
0
220
0
230
1
100
AcDbArc
50
-90
51
0
0
LINE
5
114
100
AcDbEntity
8
0
100
AcDbLine
10
24.390122470855786
20
-86.822000000000017
30
0
11
16.440122470855769
21
-86.822000000000031
31
0
0
ARC
5
115
100
AcDbEntity
8
0
100
AcDbCircle
10
16.440122470855762
20
-85.822000000000017
30
0
40
1.0000000000000053
210
0
220
0
230
1
100
AcDbArc
50
180
51
270.0000000000004
0
LINE
5
116
100
AcDbEntity
8
0
100
AcDbLine
10
15.440122470855755
20
-85.822000000000017
30
0
11
15.440122470855755
21
-79.024141016217428
31
0
0
LINE
5
117
100
AcDbEntity
8
0
100
AcDbLine
10
15.440122470855755
20
-79.024141016217428
30
0
11
12.307854529922579
21
-79.024141016217428
31
0
0
ARC
5
118
100
AcDbEntity
8
0
100
AcDbCircle
10
12.307854529922583
20
-77.024141016217428
30
0
40
1.9999999999999973
210
0
220
0
230
1
100
AcDbArc
50
180
51
269.99999999999989
0
LINE
5
119
100
AcDbEntity
8
0
100
AcDbLine
10
10.307854529922587
20
-77.024141016217428
30
0
11
10.307854529922587
21
-59.771171535607827
31
0
0
SPLINE
5
120
100
AcDbEntity
8
0
100
AcDbSpline
70
4
71
3
72
14
73
10
74
0
42
0.000000001
43
0.0000000001
44
0.0000000001
40
0
40
0
40
0
40
0
40
0.029298335504019862
40
0.029298335504019862
40
0.058596671008038961
40
0.058596671008038961
40
0.075144590880059869
40
0.075144590880059869
40
0.091692510752080097
40
0.091692510752080097
40
0.091692510752080097
40
0.091692510752080097
41
1
41
1
41
1
41
1
41
1
41
1
41
1
41
1
41
1
41
1
10
10.307854529922587
20
-59.771171535607827
30
0
10
10.307854529922587
20
-59.673510417261099
30
0
10
10.288779141849105
20
-59.576782992435177
30
0
10
10.214624982346692
20
-59.396084523223543
30
0
10
10.160255165099734
20
-59.313841054691771
30
0
10
10.052905863672734
20
-59.205073687982036
30
0
10
10.009945763324986
20
-59.170208880515986
30
0
10
9.9171596995525846
20
-59.11053366868564
30
0
10
9.8676162617134366
20
-59.085904970209889
30
0
10
9.8158220722290679
20
-59.066932409233587
30
0
0
SPLINE
5
121
100
AcDbEntity
8
0
100
AcDbSpline
70
4
71
5
72
26
73
20
74
0
42
0.000000001
43
0.0000000001
44
0.0000000001
40
2.0441529591600696
40
2.0441529591600696
40
2.0441529591600696
40
2.0441529591600696
40
2.0441529591600696
40
2.0441529591600696
40
2.0553009765348778
40
2.0553009765348778
40
2.0553009765348778
40
2.0553009765348778
40
2.0553009765348778
40
2.2553009765348779
40
2.4553009765348777
40
2.6553009765348778
40
2.8553009765348776
40
3.0553009765348778
40
3.0553009765348778
40
3.0553009765348778
40
3.0553009765348778
40
3.0553009765348778
40
3.0707030765109766
40
3.0707030765109766
40
3.0707030765109766
40
3.0707030765109766
40
3.0707030765109766
40
3.0707030765109766
41
1
41
1
41
1
41
1
41
1
41
1
41
1
41
1
41
1
41
1
41
1
41
1
41
1
41
1
41
1
41
1
41
1
41
1
41
1
41
1
10
9.8158220722290679
20
-59.066932409233587
30
0
10
9.7948864188508367
20
-59.059263538183529
30
0
10
9.7739507654725699
20
-59.051594667133486
30
0
10
9.7530151120943387
20
-59.043925796083428
30
0
10
9.7320794587161075
20
-59.036256925033385
30
0
10
9.7111438053378762
20
-59.028588053983341
30
0
10
3.4347509007700339
20
-56.729502996785406
30
0
10
-8.4646982474713894
20
-52.965442661480786
30
0
10
-24.355588615749966
20
-49.819451274349966
30
0
10
-42.135507028429018
20
-49.953264120600174
30
0
10
-60.355593839630615
20
-55.050251791950807
30
0
10
-72.636817176120559
20
-61.734910270588664
30
0
10
-80.734092410465834
20
-67.8738071984546
30
0
10
-85.6248479861069
20
-72.459522408557888
30
0
10
-87.943287834712009
20
-74.875726911991819
30
0
10
-87.964615378210667
20
-74.897953801630422
30
0
10
-87.985942921709324
20
-74.920180691269024
30
0
10
-88.007270465208023
20
-74.942407580907627
30
0
10
-88.028598008706709
20
-74.96463447054623
30
0
10
-88.049925552205366
20
-74.986861360184847
30
0
0
SPLINE
5
122
100
AcDbEntity
8
0
100
AcDbSpline
70
4
71
3
72
12
73
8
74
0
42
0.000000001
43
0.0000000001
44
0.0000000001
40
0
40
0
40
0
40
0
40
0.03906444733869463
40
0.03906444733869463
40
0.071875497497048108
40
0.071875497497048108
40
0.10468654765540159
40
0.10468654765540159
40
0.10468654765540159
40
0.10468654765540159
41
1
41
1
41
1
41
1
41
1
41
1
41
1
41
1
10
-88.049925552205337
20
-74.986861360184804
30
0
10
-88.140080866649555
20
-75.080818370499173
30
0
10
-88.211022353741626
20
-75.191486438251474
30
0
10
-88.298850203427506
20
-75.414392779674841
30
0
10
-88.321979582723529
20
-75.522040854983715
30
0
10
-88.332464760639908
20
-75.740529744707402
30
0
10
-88.319749890337107
20
-75.849897968508941
30
0
10
-88.289584902716854
20
-75.955026018971353
30
0
0
LINE
5
123
100
AcDbEntity
8
0
100
AcDbLine
10
-88.289584902716854
20
-75.955026018971353
30
0
11
-74.622885035830933
21
-123.58486533294297
31
0
0
SPLINE
5
124
100
AcDbEntity
8
0
100
AcDbSpline
70
4
71
3
72
14
73
10
74
0
42
0.000000001
43
0.0000000001
44
0.0000000001
40
0
40
0
40
0
40
0
40
0.039064447338694387
40
0.039064447338694387
40
0.078128894677389038
40
0.078128894677389038
40
0.1081348732149006
40
0.1081348732149006
40
0.13814085175241497
40
0.13814085175241497
40
0.13814085175241497
40
0.13814085175241497
41
1
41
1
41
1
41
1
41
1
41
1
41
1
41
1
41
1
41
1
10
-74.622885035830933
20
-123.58486533294297
30
0
10
-74.586970959180618
20
-123.71002954351495
30
0
10
-74.526952887114888
20
-123.82698229823399
30
0
10
-74.365465226768706
20
-124.03129905622245
30
0
10
-74.265539548538726
20
-124.11670967992428
30
0
10
-74.064888564602313
20
-124.22961328525997
30
0
10
-73.970853094564646
20
-124.26530733249618
30
0
10
-73.775335177818704
20
-124.30760022299327
30
0
10
-73.674954509958297
20
-124.31396073816157
30
0
10
-73.575308286924894
20
-124.30532266407054
30
0
0
SPLINE
5
125
100
AcDbEntity
8
0
100
AcDbSpline
70
4
71
5
72
26
73
20
74
0
42
0.000000001
43
0.0000000001
44
0.0000000001
40
-2.9574937411299063
40
-2.9574937411299063
40
-2.9574937411299063
40
-2.9574937411299063
40
-2.9574937411299063
40
-2.9574937411299063
40
-2.9066243686528868
40
-2.9066243686528868
40
-2.9066243686528868
40
-2.9066243686528868
40
-2.9066243686528868
40
-2.7066243686528866
40
-2.5066243686528868
40
-2.3066243686528867
40
-2.1066243686528869
40
-1.9066243686528868
40
-1.9066243686528868
40
-1.9066243686528868
40
-1.9066243686528868
40
-1.9066243686528868
40
-1.7777210646312973
40
-1.7777210646312973
40
-1.7777210646312973
40
-1.7777210646312973
40
-1.7777210646312973
40
-1.7777210646312973
41
1
41
1
41
1
41
1
41
1
41
1
41
1
41
1
41
1
41
1
41
1
41
1
41
1
41
1
41
1
41
1
41
1
41
1
41
1
41
1
10
-73.575308286924894
20
-124.30532266407053
30
0
10
-73.47394966942656
20
-124.29653614691951
30
0
10
-73.372591051928211
20
-124.28774962976853
30
0
10
-73.271232434429862
20
-124.27896311261753
30
0
10
-73.169873816931528
20
-124.27017659546652
30
0
10
-73.068515199433193
20
-124.26139007831554
30
0
10
-68.666712648845447
20
-123.8798091672827
30
0
10
-60.055068408435304
20
-123.31000633438549
30
0
10
-47.71305134473792
20
-123.03491770774085
30
0
10
-32.322532343210426
20
-123.71980002453611
30
0
10
-14.785691238342409
20
-126.11310737049746
30
0
10
-2.3547751312671394
20
-129.3270043390479
30
0
10
5.792427419344115
20
-132.6364328734316
30
0
10
10.631731223271572
20
-135.29013825278972
30
0
10
12.903215733265014
20
-136.72893856508443
30
0
10
13.121007288719015
20
-136.86689176556797
30
0
10
13.338798844173015
20
-137.00484496605151
30
0
10
13.556590399627018
20
-137.14279816653504
30
0
10
13.774381955081026
20
-137.28075136701858
30
0
10
13.992173510535032
20
-137.41870456750212
30
0
0
LWPOLYLINE
5
126
100
AcDbEntity
8
0
100
AcDbPolyline
90
8
70
1
43
0.0
10
-51.180333970150222
20
-59.189196494901431
42
0.41421363128088401
10
-52.309775182728309
20
-58.338101307591586
10
-63.996649500992682
20
-59.980584521244118
42
0.41421366508481239
10
-64.847744406520917
20
-61.110026048346526
10
-63.205257963291785
20
-72.796893608995916
42
0.41421340202151569
10
-62.07581702714112
20
-73.647988243450953
10
-50.388949233515419
20
-72.005508292117838
42
0.41421355110514352
10
-49.537854051559727
20
-70.876067317870209
0
LWPOLYLINE
5
127
100
AcDbEntity
8
0
100
AcDbPolyline
90
8
70
1
43
0.0
10
-28.002876680374129
20
-100.7485920610428
42
0.41421356237311457
10
-27.002876680374101
20
-99.748592061042814
10
-27.002876680374115
20
-87.946864008903503
42
0.41421356237306645
10
-28.002876680374094
20
-86.946864008903546
10
-39.804604732513411
20
-86.946864008903489
42
0.41421356237311319
10
-40.80460473251344
20
-87.946864008903489
10
-40.804604732513425
20
-99.748592061042785
42
0.41421356237308854
10
-39.804604732513411
20
-100.74859206104279
0
LWPOLYLINE
5
128
100
AcDbEntity
8
0
100
AcDbPolyline
90
8
70
1
43
0.0
10
-9.9039760129674885
20
-111.22395114823675
42
0.41421352046322418
10
-11.128720704213002
20
-111.93105803908666
10
-14.183230259522654
20
-123.33064559575602
42
0.41421358332805308
10
-13.476123336600105
20
-124.55539044373226
10
-2.076531812987418
20
-127.60990018784524
42
0.41421346321319163
10
-0.85178712174204052
20
-126.90279357342264
10
2.2027256958869397
20
-115.50320601675327
42
0.4142136824879199
10
1.4956187729644477
20
-114.27846089234968
0
LWPOLYLINE
5
129
100
AcDbEntity
8
0
100
AcDbPolyline
90
8
70
1
43
0.0
10
-3.7981055812835152
20
-60.809598388195042
42
0.41421356237307944
10
-4.7981055812835116
20
-61.809598388195042
10
-4.7981055812835294
20
-73.611322625160241
42
0.41421356237311258
10
-3.7981055812835507
20
-74.611322625160184
10
8.0036224708557668
20
-74.611322625160241
42
0.41421356237307971
10
9.0036224708557633
20
-73.611322625160241
10
9.003622470855781
20
-61.809598388195042
42
0.41421356237307361
10
8.0036224708557668
20
-60.809598388195027
0
CIRCLE
5
130
100
AcDbEntity
8
0
100
AcDbCircle
10
-51.917877529144221
20
-112.69400000000002
30
0
40
0.99999999999999645
210
0
220
0
230
1
0
LWPOLYLINE
5
131
100
AcDbEntity
8
0
100
AcDbPolyline
90
8
70
1
43
0.0
10
-46.4489758459613
20
-92.854593948992502
42
0.414213584909088
10
-47.578417334966829
20
-92.003499314537407
10
-59.26528516668931
20
-93.645985795863481
42
0.41421340202155288
10
-60.116379801144419
20
-94.775426732014139
10
-58.473899844457087
20
-106.46229456373662
42
0.41421353983720172
10
-57.344458908306279
20
-107.31338975104646
10
-45.657584551944943
20
-105.67090979435919
42
0.41421372272455204
10
-44.806489364635212
20
-104.54146830535385
0
LWPOLYLINE
5
132
100
AcDbEntity
8
0
100
AcDbPolyline
90
8
70
1
43
0.0
10
-28.002876680374129
20
-66.610322625160222
42
0.41421356237310802
10
-27.002876680374108
20
-65.610322625160236
10
-27.002876680374115
20
-53.808598388195044
42
0.41421356237309637
10
-28.002876680374094
20
-52.808598388195094
10
-39.804604732513411
20
-52.808598388195037
42
0.41421356237309509
10
-40.80460473251344
20
-53.808598388195037
10
-40.804604732513425
20
-65.610322625160236
42
0.41421356237310414
10
-39.804604732513411
20
-66.610322625160222
0
LWPOLYLINE
5
133
100
AcDbEntity
8
0
100
AcDbPolyline
90
8
70
1
43
0.0
10
-48.817718262561094
20
-76.000107927373421
42
0.41421340202153667
10
-49.947159198711759
20
-75.149013292918397
10
-61.63402703043424
20
-76.791493249605651
42
0.41421353983720682
10
-62.485122217744042
20
-77.920934185756508
10
-60.842642261056845
20
-89.607808542117837
42
0.41421372272458851
10
-59.713200772051458
20
-90.458903729427561
10
-48.026326415690122
20
-88.816417248101502
42
0.41421358490904603
10
-47.175231781234984
20
-87.686975759095972
0
LWPOLYLINE
5
134
100
AcDbEntity
8
0
100
AcDbPolyline
90
8
70
1
43
0.0
10
8.0036224708557668
20
-108.62357686042787
42
0.41421356237306678
10
9.0036224708557739
20
-107.62357686042789
10
9.0036224708557455
20
-95.821848808288593
42
0.41421356237307461
10
8.0036224708557668
20
-94.821848808288607
10
-3.7981055812835152
20
-94.821848808288593
42
0.41421356237306461
10
-4.7981055812835116
20
-95.821848808288593
10
-4.7981055812835649
20
-107.62357686042789
42
0.41421356237308871
10
-3.7981055812835507
20
-108.62357686042787
0
LWPOLYLINE
5
135
100
AcDbEntity
8
0
100
AcDbPolyline
90
8
70
1
43
0.0
10
18.686090523103012
20
-93.093333777079408
42
0.41421356237309637
10
19.686090523102955
20
-94.093333777079351
10
20.517500497097849
20
-94.093333777079366
42
0.414213562373069
10
21.517500497097881
20
-93.09333377707938
10
21.517500497097863
20
-91.562599652880948
42
0.41421356237308465
10
20.517500497097885
20
-90.562599652881005
10
19.68609052310299
20
-90.562599652880948
42
0.41421356237308787
10
18.686090523102976
20
-91.562599652880948
0
LWPOLYLINE
5
136
100
AcDbEntity
8
0
100
AcDbPolyline
90
8
70
1
43
0.0
10
10.912201745361365
20
-118.49117242582638
42
0.4142136729715048
10
9.5461761472884099
20
-118.85719813615667
10
3.6453154786014599
20
-129.07779718181044
42
0.41421355152608608
10
4.0113413456626379
20
-130.44382243434941
10
14.231933539660346
20
-136.34467965191357
42
0.41421342213985546
10
15.597958584878588
20
-135.97865421801055
10
21.498822515885081
20
-125.75806169699564
42
0.41421360285494641
10
21.132797201678635
20
-124.39203616802943
0
LWPOLYLINE
5
137
100
AcDbEntity
8
0
100
AcDbPolyline
90
8
70
1
43
0.0
10
-72.576002947909728
20
-73.721576971307115
42
0.41421371802770662
10
-73.812902115502879
20
-73.035952065047368
10
-85.157448252360197
20
-76.288947774544184
42
0.41421340671851059
10
-85.843072794252734
20
-77.525846284802171
10
-82.590083693401823
20
-88.870392128691392
42
0.41421371802772444
10
-81.353184525808686
20
-89.556017034951068
10
-70.008638388951425
20
-86.303021325454296
42
0.41421340671848422
10
-69.323013847058817
20
-85.066122815196351
0
LWPOLYLINE
5
138
100
AcDbEntity
8
0
100
AcDbPolyline
90
8
70
1
43
0.0
10
8.0036224708557668
20
-91.603451869010954
42
0.41421356237306478
10
9.0036224708557668
20
-90.603451869010954
10
9.0036224708557455
20
-78.801723816871657
42
0.41421356237307033
10
8.0036224708557668
20
-77.801723816871672
10
-3.7981055812835152
20
-77.801723816871643
42
0.4142135623730871
10
-4.7981055812835383
20
-78.801723816871643
10
-4.7981055812835649
20
-90.603451869010939
42
0.41421356237308871
10
-3.7981055812835507
20
-91.603451869010939
0
LWPOLYLINE
5
139
100
AcDbEntity
8
0
100
AcDbPolyline
90
8
70
1
43
0.0
10
-28.002876680374129
20
-83.728467069625879
42
0.41421356237308204
10
-27.002876680374122
20
-82.728467069625893
10
-27.002876680374079
20
-70.926739017486582
42
0.41421356237307944
10
-28.002876680374094
20
-69.926739017486597
10
-39.804604732513411
20
-69.926739017486582
42
0.41421356237309509
10
-40.80460473251344
20
-70.926739017486568
10
-40.804604732513425
20
-82.728467069625879
42
0.41421356237308854
10
-39.804604732513411
20
-83.728467069625879
0
LWPOLYLINE
5
140
100
AcDbEntity
8
0
100
AcDbPolyline
90
8
70
1
43
0.0
10
-67.889594958281165
20
-90.065071890576831
42
0.41421340671850088
10
-69.126493832906007
20
-89.379448006019203
10
-80.471039969763325
20
-92.632443715516047
42
0.41421371802767304
10
-81.156664218687553
20
-93.869343247476053
10
-77.903661900544421
20
-105.21388967730192
42
0.41421340671850088
10
-76.666763025919579
20
-105.89951356185955
10
-65.322216889062261
20
-102.64651785236275
42
0.41421371802770485
10
-64.636592640137977
20
-101.4096183204027
0
LWPOLYLINE
5
141
100
AcDbEntity
8
0
100
AcDbPolyline
90
8
70
1
43
0.0
10
26.957119897864743
20
-110.45082539843649
42
0.4142135623731002
10
25.957119897864729
20
-109.45082539843651
10
17.148115290566466
20
-109.45082539843651
42
0.41421356237309509
10
16.148115290566469
20
-110.45082539843649
10
16.148115290566452
20
-115.46200557990461
42
0.41421356237309759
10
17.148115290566466
20
-116.46200557990461
10
25.957119897864729
20
-116.46200557990461
42
0.41421356237309509
10
26.957119897864725
20
-115.46200557990461
0
LWPOLYLINE
5
142
100
AcDbEntity
8
0
100
AcDbPolyline
90
8
70
1
43
0.0
10
-22.411623455054226
20
-110.66225407409001
42
0.41421356237309759
10
-23.411623455054233
20
-111.66225407409001
10
-23.41162345505424
20
-116.67774592591002
42
0.41421356237310542
10
-22.411623455054226
20
-117.67774592591003
10
-17.396131603234224
20
-117.67774592590999
42
0.41421356237308526
10
-16.396131603234245
20
-116.67774592591005
10
-16.396131603234245
20
-111.66225407409001
42
0.41421356237308526
10
-17.396131603234224
20
-110.66225407409004
0
LWPOLYLINE
5
143
100
AcDbEntity
8
0
100
AcDbPolyline
90
8
70
1
43
0.0
10
-10.012629218101452
20
-72.111010125160234
42
0.4142135623731002
10
-9.01262921810142
20
-71.111010125160234
10
-9.0126292181014378
20
-59.309285888195049
42
0.41421356237310608
10
-10.012629218101452
20
-58.30928588819507
10
-21.814357270240734
20
-58.309285888195049
42
0.4142135623731002
10
-22.814357270240766
20
-59.309285888195049
10
-22.814357270240748
20
-71.111010125160234
42
0.41421356237310542
10
-21.814357270240734
20
-72.11101012516022
0
LWPOLYLINE
5
144
100
AcDbEntity
8
0
100
AcDbPolyline
90
8
70
1
43
0.0
10
-63.203165212711951
20
-106.40856100501971
42
0.4142135177398511
10
-64.440064087336992
20
-105.72293656760755
10
-75.78461725968431
20
-108.97593242358845
42
0.41421376266090792
10
-76.470241655092693
20
-110.21283199755214
10
-73.21723937895328
20
-121.55737828089384
42
0.41421340671855522
10
-71.98034050432841
20
-122.24300216545146
10
-60.635793856620026
20
-118.9900063094705
42
0.4142135623730886
10
-59.950169461211459
20
-117.75310728836138
0
LWPOLYLINE
5
145
100
AcDbEntity
8
0
100
AcDbPolyline
90
8
70
1
43
0.0
10
15.211851883534599
20
-97.882625323295002
42
0.4142135623731002
10
14.211851883534621
20
-98.882625323295002
10
14.211851883534585
20
-100.41335944749346
42
0.4142135623731204
10
15.211851883534564
20
-101.41335944749341
10
16.043261857529458
20
-101.41335944749343
42
0.41421356237308787
10
17.043261857529473
20
-100.41335944749343
10
17.043261857529473
20
-98.882625323295002
42
0.41421356237308593
10
16.043261857529494
20
-97.882625323294988
0
CIRCLE
5
146
100
AcDbEntity
8
0
100
AcDbCircle
10
-51.917877529144221
20
-116.69400000000002
30
0
40
0.99999999999999645
210
0
220
0
230
1
0
LWPOLYLINE
5
147
100
AcDbEntity
8
0
100
AcDbPolyline
90
8
70
1
43
0.0
10
-10.012629218101452
20
-89.063133453369147
42
0.41421356237308854
10
-9.0126292181014414
20
-88.063133453369161
10
-9.0126292181014378
20
-76.261405401229865
42
0.41421356237311319
10
-10.012629218101452
20
-75.261405401229879
10
-21.814357270240734
20
-75.261405401229865
42
0.4142135623731002
10
-22.814357270240766
20
-76.261405401229865
10
-22.814357270240748
20
-88.063133453369161
42
0.41421356237308726
10
-21.814357270240734
20
-89.063133453369147
0
LWPOLYLINE
5
148
100
AcDbEntity
8
0
100
AcDbPolyline
90
8
70
1
43
0.0
10
-10.012629218101452
20
-106.08325844478608
42
0.41421356237311519
10
-9.0126292181014218
20
-105.08325844478608
10
-9.0126292181014378
20
-93.2815303926468
42
0.41421356237310608
10
-10.012629218101452
20
-92.281530392646829
10
-21.814357270240734
20
-92.281530392646815
42
0.41421356237311457
10
-22.814357270240766
20
-93.2815303926468
10
-22.814357270240748
20
-105.08325844478611
42
0.41421356237308726
10
-21.814357270240734
20
-106.08325844478611
0
SPLINE
5
149
100
AcDbEntity
8
0
100
AcDbSpline
70
0
71
3
72
16
73
12
74
0
42
0.000000001
43
0.0000000001
44
0.0000000001
40
0
40
0
40
0
40
0
40
0.078128894677381808
40
0.078128894677381808
40
0.15625778935476614
40
0.15625778935476614
40
0.23438668403215118
40
0.23438668403215118
40
0.27979435050292212
40
0.27979435050292212
40
0.32520201697369483
40
0.32520201697369483
40
0.32520201697369483
40
0.32520201697369483
10
47.01794896032078
20
-137.41870456750212
30
0
10
46.79794149520518
20
-137.55806136616081
30
0
10
46.552817939756928
20
-137.65311348769336
30
0
10
46.039933188026232
20
-137.74390797870532
30
0
10
45.777075449514093
20
-137.73878230336385
30
0
10
45.268120195002119
20
-137.62806212877655
30
0
10
45.02688856863746
20
-137.52352617474691
30
0
10
44.687869879944344
20
-137.28978245172189
30
0
10
44.573413492944042
20
-137.1899977811461
30
0
10
44.369210538411032
20
-136.96652696526175
30
0
10
44.280122372094731
20
-136.84356134555659
30
0
10
44.205759928944829
20
-136.71172910330611
30
0
0
SPLINE
5
150
100
AcDbEntity
8
0
100
AcDbSpline
70
4
71
5
72
26
73
20
74
0
42
0.000000001
43
0.0000000001
44
0.0000000001
40
1.7777210646313029
40
1.7777210646313029
40
1.7777210646313029
40
1.7777210646313029
40
1.7777210646313029
40
1.7777210646313029
40
1.9066243686528868
40
1.9066243686528868
40
1.9066243686528868
40
1.9066243686528868
40
1.9066243686528868
40
2.1066243686528869
40
2.3066243686528867
40
2.5066243686528868
40
2.7066243686528866
40
2.9066243686528868
40
2.9066243686528868
40
2.9066243686528868
40
2.9066243686528868
40
2.9066243686528868
40
2.9574937411299063
40
2.9574937411299063
40
2.9574937411299063
40
2.9574937411299063
40
2.9574937411299063
40
2.9574937411299063
41
1
41
1
41
1
41
1
41
1
41
1
41
1
41
1
41
1
41
1
41
1
41
1
41
1
41
1
41
1
41
1
41
1
41
1
41
1
41
1
10
47.017948960320801
20
-137.41870456750212
30
0
10
47.2357405157748
20
-137.28075136701861
30
0
10
47.453532071228778
20
-137.14279816653502
30
0
10
47.671323626682778
20
-137.00484496605151
30
0
10
47.889115182136777
20
-136.86689176556797
30
0
10
48.106906737590776
20
-136.72893856508443
30
0
10
50.378391247584219
20
-135.29013825278972
30
0
10
55.217695051511669
20
-132.6364328734316
30
0
10
63.364897602122916
20
-129.3270043390479
30
0
10
75.795813709198171
20
-126.11310737049746
30
0
10
93.332654814066203
20
-123.71980002453611
30
0
10
108.7231738155937
20
-123.03491770774085
30
0
10
121.06519087929107
20
-123.31000633438549
30
0
10
129.67683511970125
20
-123.8798091672827
30
0
10
134.07863767028897
20
-124.26139007831554
30
0
10
134.1799962877873
20
-124.27017659546652
30
0
10
134.28135490528564
20
-124.27896311261753
30
0
10
134.382713522784
20
-124.28774962976853
30
0
10
134.48407214028234
20
-124.29653614691951
30
0
10
134.5854307577807
20
-124.30532266407053
30
0
0
SPLINE
5
151
100
AcDbEntity
8
0
100
AcDbSpline
70
0
71
3
72
14
73
10
74
0
42
0.000000001
43
0.0000000001
44
0.0000000001
40
-0.13814085175241497
40
-0.13814085175241497
40
-0.13814085175241497
40
-0.13814085175241497
40
-0.1081348732149006
40
-0.1081348732149006
40
-0.078128894677389038
40
-0.078128894677389038
40
-0.039064447338694387
40
-0.039064447338694387
40
0
40
0
40
0
40
0
10
134.5854307577807
20
-124.30532266407054
30
0
10
134.68507698081407
20
-124.31396073816157
30
0
10
134.78545764867448
20
-124.30760022299327
30
0
10
134.98097556542041
20
-124.26530733249618
30
0
10
135.07501103545809
20
-124.22961328525997
30
0
10
135.2756620193945
20
-124.11670967992428
30
0
10
135.3755876976245
20
-124.03129905622245
30
0
10
135.53707535797068
20
-123.82698229823399
30
0
10
135.59709343003641
20
-123.71002954351495
30
0
10
135.63300750668671
20
-123.58486533294297
30
0
0
LINE
5
152
100
AcDbEntity
8
0
100
AcDbLine
10
135.63300750668671
20
-123.58486533294298
30
0
11
149.29970737357263
21
-75.955026018971353
31
0
0
SPLINE
5
153
100
AcDbEntity
8
0
100
AcDbSpline
70
0
71
3
72
12
73
8
74
0
42
0.000000001
43
0.0000000001
44
0.0000000001
40
-0.10468654765540159
40
-0.10468654765540159
40
-0.10468654765540159
40
-0.10468654765540159
40
-0.071875497497048108
40
-0.071875497497048108
40
-0.03906444733869463
40
-0.03906444733869463
40
0
40
0
40
0
40
0
10
149.29970737357263
20
-75.955026018971353
30
0
10
149.32987236119286
20
-75.849897968508941
30
0
10
149.34258723149571
20
-75.740529744707402
30
0
10
149.33210205357929
20
-75.522040854983715
30
0
10
149.30897267428327
20
-75.414392779674841
30
0
10
149.22114482459739
20
-75.191486438251474
30
0
10
149.15020333750533
20
-75.080818370499173
30
0
10
149.06004802306111
20
-74.986861360184804
30
0
0
SPLINE
5
154
100
AcDbEntity
8
0
100
AcDbSpline
70
4
71
5
72
26
73
20
74
0
42
0.000000001
43
0.0000000001
44
0.0000000001
40
-3.0707030765109766
40
-3.0707030765109766
40
-3.0707030765109766
40
-3.0707030765109766
40
-3.0707030765109766
40
-3.0707030765109766
40
-3.0553009765348778
40
-3.0553009765348778
40
-3.0553009765348778
40
-3.0553009765348778
40
-3.0553009765348778
40
-2.8553009765348776
40
-2.6553009765348778
40
-2.4553009765348777
40
-2.2553009765348779
40
-2.0553009765348778
40
-2.0553009765348778
40
-2.0553009765348778
40
-2.0553009765348778
40
-2.0553009765348778
40
-2.0441529591600696
40
-2.0441529591600696
40
-2.0441529591600696
40
-2.0441529591600696
40
-2.0441529591600696
40
-2.0441529591600696
41
1
41
1
41
1
41
1
41
1
41
1
41
1
41
1
41
1
41
1
41
1
41
1
41
1
41
1
41
1
41
1
41
1
41
1
41
1
41
1
10
149.06004802306114
20
-74.986861360184847
30
0
10
149.03872047956247
20
-74.96463447054623
30
0
10
149.0173929360638
20
-74.942407580907627
30
0
10
148.99606539256513
20
-74.920180691269024
30
0
10
148.97473784906646
20
-74.897953801630422
30
0
10
148.95341030556776
20
-74.875726911991819
30
0
10
146.63497045696266
20
-72.459522408557888
30
0
10
141.7442148813216
20
-67.8738071984546
30
0
10
133.64693964697634
20
-61.734910270588664
30
0
10
121.36571631048641
20
-55.050251791950807
30
0
10
103.14562949928481
20
-49.953264120600174
30
0
10
85.365711086605756
20
-49.819451274349966
30
0
10
69.47482071832718
20
-52.965442661480786
30
0
10
57.575371570085743
20
-56.729502996785406
30
0
10
51.298978665517907
20
-59.028588053983341
30
0
10
51.278043012139669
20
-59.036256925033385
30
0
10
51.257107358761431
20
-59.043925796083428
30
0
10
51.2361717053832
20
-59.051594667133486
30
0
10
51.215236052004947
20
-59.059263538183529
30
0
10
51.194300398626709
20
-59.066932409233587
30
0
0
SPLINE
5
155
100
AcDbEntity
8
0
100
AcDbSpline
70
0
71
3
72
14
73
10
74
0
42
0.000000001
43
0.0000000001
44
0.0000000001
40
-0.091692510752080097
40
-0.091692510752080097
40
-0.091692510752080097
40
-0.091692510752080097
40
-0.075144590880059869
40
-0.075144590880059869
40
-0.058596671008038961
40
-0.058596671008038961
40
-0.029298335504019862
40
-0.029298335504019862
40
0
40
0
40
0
40
0
10
51.194300398626709
20
-59.066932409233587
30
0
10
51.14250620914234
20
-59.085904970209889
30
0
10
51.092962771303178
20
-59.11053366868564
30
0
10
51.000176707530791
20
-59.170208880515986
30
0
10
50.957216607183049
20
-59.205073687982036
30
0
10
50.84986730575605
20
-59.313841054691771
30
0
10
50.795497488509078
20
-59.396084523223543
30
0
10
50.721343329006665
20
-59.576782992435177
30
0
10
50.70226794093319
20
-59.673510417261099
30
0
10
50.70226794093319
20
-59.771171535607827
30
0
0
LINE
5
156
100
AcDbEntity
8
0
100
AcDbLine
10
50.70226794093319
20
-59.771171535607827
30
0
11
50.702267940933197
21
-77.024141016217428
31
0
0
ARC
5
157
100
AcDbEntity
8
0
100
AcDbCircle
10
48.70226794093319
20
-77.024141016217428
30
0
40
2.0000000000000107
210
0
220
0
230
1
100
AcDbArc
50
-89.999999999999801
51
0
0
LINE
5
158
100
AcDbEntity
8
0
100
AcDbLine
10
48.702267940933197
20
-79.024141016217428
30
0
11
45.570000000000007
21
-79.024141016217428
31
0
0
LINE
5
159
100
AcDbEntity
8
0
100
AcDbLine
10
45.570000000000007
20
-79.024141016217428
30
0
11
45.570000000000007
21
-85.822000000000017
31
0
0
ARC
5
160
100
AcDbEntity
8
0
100
AcDbCircle
10
44.570000000000007
20
-85.822000000000017
30
0
40
0.99999999999999645
210
0
220
0
230
1
100
AcDbArc
50
-90
51
0
0
LINE
5
161
100
AcDbEntity
8
0
100
AcDbLine
10
44.570000000000007
20
-86.822000000000017
30
0
11
36.620000000000005
21
-86.822000000000017
31
0
0
ARC
5
162
100
AcDbEntity
8
0
100
AcDbCircle
10
36.620000000000012
20
-85.822000000000017
30
0
40
1.0000000000000053
210
0
220
0
230
1
100
AcDbArc
50
180
51
269.9999999999996
0
LINE
5
163
100
AcDbEntity
8
0
100
AcDbLine
10
35.620000000000005
20
-85.822000000000017
30
0
11
35.620000000000012
21
-79.024141016217428
31
0
0
LINE
5
164
100
AcDbEntity
8
0
100
AcDbLine
10
35.620000000000012
20
-79.024141016217428
30
0
11
32.750000476837172
21
-79.024141016217428
31
0
0
ARC
5
165
100
AcDbEntity
8
0
100
AcDbCircle
10
32.750000476837172
20
-79.774141016217442
30
0
40
0.75000000000001066
210
0
220
-0
230
1
100
AcDbArc
50
90
51
180
0
LINE
5
166
100
AcDbEntity
8
0
100
AcDbLine
10
32.000000476837158
20
-79.774141016217442
30
0
11
32.000000476837158
21
-98.030000000000001
31
0
0
LINE
5
167
100
AcDbEntity
8
0
100
AcDbLine
10
32.000000476837158
20
-98.030000000000001
30
0
11
38.808000000000007
21
-98.030000000000001
31
0
0
ARC
5
168
100
AcDbEntity
8
0
100
AcDbCircle
10
38.808
20
-99.030000000000001
30
0
40
1.0000000000000053
210
0
220
0
230
1
100
AcDbArc
50
0
51
89.999999999999588
0
LINE
5
169
100
AcDbEntity
8
0
100
AcDbLine
10
39.808000000000007
20
-99.030000000000001
30
0
11
39.808000000000007
21
-106.98000000000002
31
0
0
ARC
5
170
100
AcDbEntity
8
0
100
AcDbCircle
10
38.808000000000007
20
-106.98000000000002
30
0
40
0.99999999999999645
210
0
220
0
230
1
100
AcDbArc
50
-90
51
0
0
LINE
5
171
100
AcDbEntity
8
0
100
AcDbLine
10
38.808000000000007
20
-107.98000000000002
30
0
11
32.000000476837158
21
-107.98000000000002
31
0
0
LINE
5
172
100
AcDbEntity
8
0
100
AcDbLine
10
32.000000476837158
20
-107.98000000000002
30
0
11
32.000000476837158
21
-110.87154834385105
31
0
0
ARC
5
173
100
AcDbEntity
8
0
100
AcDbCircle
10
48.000000476837286
20
-110.87154834385102
30
0
40
16.000000000000128
210
0
220
0
230
1
100
AcDbArc
50
180
51
209.42598502871135
0
LINE
5
174
100
AcDbEntity
8
0
100
AcDbLine
10
34.064143120908469
20
-118.7323294599494
30
0
11
44.205759928944829
21
-136.71172910330611
31
0
0
LWPOLYLINE
5
175
100
AcDbEntity
8
0
100
AcDbPolyline
90
8
70
1
43
0.0
10
121.12650227200015
20
-94.775426732014125
42
0.41421340202153151
10
120.2754076375451
20
-93.645985795863453
10
108.58853980582261
20
-92.003499314537379
42
0.41421358490909016
10
107.45909831681709
20
-92.854593948992502
10
105.81661183549096
20
-104.54146830535385
42
0.41421372272457591
10
106.6677070228007
20
-105.6709097943592
10
118.35458137916206
20
-107.31338975104646
42
0.41421353983719145
10
119.4840223153129
20
-106.46229456373662
0
LWPOLYLINE
5
176
100
AcDbEntity
8
0
100
AcDbPolyline
90
8
70
1
43
0.0
10
71.022751688957214
20
-92.281530392646815
42
0.41421356237309759
10
70.0227516889572
20
-93.2815303926468
10
70.022751688957214
20
-105.08325844478608
42
0.41421356237309243
10
71.022751688957214
20
-106.08325844478611
10
82.824479741096511
20
-106.08325844478611
42
0.41421356237309509
10
83.824479741096511
20
-105.08325844478611
10
83.824479741096511
20
-93.2815303926468
42
0.41421356237310542
10
82.824479741096511
20
-92.281530392646815
0
LWPOLYLINE
5
177
100
AcDbEntity
8
0
100
AcDbPolyline
90
8
70
1
43
0.0
10
53.00650000000001
20
-94.821848808288593
42
0.41421356237309759
10
52.006500000000003
20
-95.821848808288593
10
52.006500000000017
20
-107.62357686042789
42
0.41421356237309509
10
53.00650000000001
20
-108.62357686042787
10
64.808228052139313
20
-108.62357686042787
42
0.41421356237309509
10
65.808228052139299
20
-107.62357686042789
10
65.808228052139299
20
-95.821848808288593
42
0.41421356237309759
10
64.808228052139299
20
-94.821848808288593
0
LWPOLYLINE
5
178
100
AcDbEntity
8
0
100
AcDbPolyline
90
8
70
1
43
0.0
10
71.022751688957214
20
-58.309285888195049
42
0.41421356237309509
10
70.022751688957214
20
-59.309285888195049
10
70.022751688957214
20
-71.111010125160234
42
0.41421356237310281
10
71.022751688957214
20
-72.111010125160234
10
82.824479741096511
20
-72.111010125160234
42
0.41421356237309759
10
83.824479741096511
20
-71.111010125160234
10
83.824479741096511
20
-59.309285888195049
42
0.41421356237309759
10
82.824479741096511
20
-58.309285888195049
0
CIRCLE
5
179
100
AcDbEntity
8
0
100
AcDbCircle
10
112.928
20
-116.69400000000002
30
0
40
0.99999999999999645
210
0
220
0
230
1
0
LWPOLYLINE
5
180
100
AcDbEntity
8
0
100
AcDbPolyline
90
8
70
1
43
0.0
10
146.85319526510852
20
-77.525846284802157
42
0.41421340671848167
10
146.16757072321596
20
-76.288947774544184
10
134.82302458635866
20
-73.035952065047411
42
0.414213718027723
10
133.5861254187655
20
-73.721576971307087
10
130.33313631791461
20
-85.066122815196351
42
0.41421340671848422
10
131.01876085980717
20
-86.303021325454296
10
142.36330699666445
20
-89.556017034951068
42
0.414213718027723
10
143.6002061642576
20
-88.870392128691407
0
LWPOLYLINE
5
181
100
AcDbEntity
8
0
100
AcDbPolyline
90
8
70
1
43
0.0
10
123.49524468859984
20
-77.920934185756508
42
0.41421353983719145
10
122.64414950129
20
-76.791493249605651
10
110.95728166956755
20
-75.149013292918397
42
0.41421340202154955
10
109.82784073341689
20
-76.000107927373435
10
108.18535425209078
20
-87.686975759095972
42
0.41421358490907989
10
109.03644888654591
20
-88.816417248101502
10
120.72332324290724
20
-90.45890372942759
42
0.41421372272458623
10
121.8527647319126
20
-89.607808542117851
0
LWPOLYLINE
5
182
100
AcDbEntity
8
0
100
AcDbPolyline
90
8
70
1
43
0.0
10
89.012999151229877
20
-69.926739017486582
42
0.41421356237309759
10
88.012999151229891
20
-70.926739017486582
10
88.012999151229877
20
-82.728467069625879
42
0.41421356237310542
10
89.012999151229891
20
-83.728467069625893
10
100.81472720336919
20
-83.728467069625879
42
0.41421356237309509
10
101.81472720336919
20
-82.728467069625879
10
101.81472720336916
20
-70.926739017486568
42
0.41421356237309509
10
100.81472720336917
20
-69.926739017486582
0
LWPOLYLINE
5
183
100
AcDbEntity
8
0
100
AcDbPolyline
90
8
70
1
43
0.0
10
83.421745925910002
20
-117.67774592591002
42
0.41421356237310542
10
84.421745925910002
20
-116.67774592591002
10
84.421745925910002
20
-111.66225407409001
42
0.41421356237310542
10
83.421745925910002
20
-110.66225407409001
10
78.40625407409
20
-110.66225407409004
42
0.41421356237308726
10
77.406254074090015
20
-111.66225407409001
10
77.406254074090015
20
-116.67774592591003
42
0.41421356237307161
10
78.40625407409
20
-117.67774592590999
0
LWPOLYLINE
5
184
100
AcDbEntity
8
0
100
AcDbPolyline
90
8
70
1
43
0.0
10
137.48036412594846
20
-110.21283199755214
42
0.41421376266089077
10
136.79473973054007
20
-108.97593242358849
10
125.45018655819275
20
-105.72293656760756
42
0.41421351773989579
10
124.21328768356771
20
-106.40856100501972
10
120.96029193206724
20
-117.75310728836138
42
0.41421356237310503
10
121.64591632747576
20
-118.9900063094705
10
132.99046297518419
20
-122.24300216545144
42
0.41421340671853701
10
134.22736184980903
20
-121.55737828089384
0
LWPOLYLINE
5
185
100
AcDbEntity
8
0
100
AcDbPolyline
90
8
70
1
43
0.0
10
74.486245807455887
20
-124.55539044373225
42
0.41421358332802449
10
75.19335273037845
20
-123.33064559575604
10
72.1388431750688
20
-111.93105803908666
42
0.41421352046322124
10
70.914098483823295
20
-111.22395114823675
10
59.514503697891328
20
-114.27846089234967
42
0.41421368248790102
10
58.807396774968865
20
-115.50320601675325
10
61.86190959259779
20
-126.90279357342266
42
0.41421346321320868
10
63.086654283843217
20
-127.60990018784523
0
LWPOLYLINE
5
186
100
AcDbEntity
8
0
100
AcDbPolyline
90
8
70
1
43
0.0
10
53.00650000000001
20
-77.801723816871657
42
0.41421356237309509
10
52.006500000000017
20
-78.801723816871657
10
52.006500000000017
20
-90.603451869010954
42
0.41421356237309759
10
53.00650000000001
20
-91.603451869010954
10
64.808228052139313
20
-91.603451869010939
42
0.41421356237309509
10
65.808228052139299
20
-90.603451869010939
10
65.808228052139299
20
-78.801723816871643
42
0.41421356237309509
10
64.808228052139299
20
-77.801723816871643
0
LWPOLYLINE
5
187
100
AcDbEntity
8
0
100
AcDbPolyline
90
8
70
1
43
0.0
10
41.834419094551961
20
-91.612560148105416
42
0.41421356237309509
10
40.834419094551961
20
-90.612560148105416
10
40.003009120557074
20
-90.612560148105416
42
0.41421356237309509
10
39.003009120557067
20
-91.612560148105416
10
39.003009120557088
20
-93.143294272303848
42
0.41421356237309509
10
40.003009120557081
20
-94.143294272303848
10
40.834419094551961
20
-94.143294272303848
42
0.41421356237308726
10
41.834419094551947
20
-93.143294272303876
0
LWPOLYLINE
5
188
100
AcDbEntity
8
0
100
AcDbPolyline
90
8
70
1
43
0.0
10
89.012999151229877
20
-52.808598388195051
42
0.41421356237309759
10
88.012999151229891
20
-53.808598388195044
10
88.012999151229877
20
-65.610322625160236
42
0.41421356237309759
10
89.012999151229891
20
-66.610322625160251
10
100.81472720336919
20
-66.610322625160236
42
0.41421356237309759
10
101.81472720336919
20
-65.610322625160236
10
101.81472720336916
20
-53.808598388195037
42
0.41421356237309509
10
100.81472720336917
20
-52.808598388195037
0
LWPOLYLINE
5
189
100
AcDbEntity
8
0
100
AcDbPolyline
90
8
70
1
43
0.0
10
142.16678668954336
20
-93.869343247476053
42
0.41421371802767021
10
141.48116244061913
20
-92.632443715516018
10
130.13661630376177
20
-89.379448006019246
42
0.41421340671853701
10
128.89971742913693
20
-90.065071890576846
10
125.64671511099378
20
-101.4096183204027
42
0.41421371802767665
10
126.33233935991804
20
-102.64651785236273
10
137.67688549677536
20
-105.89951356185951
42
0.41421340671853701
10
138.91378437140023
20
-105.21388967730191
0
CIRCLE
5
190
100
AcDbEntity
8
0
100
AcDbCircle
10
112.928
20
-112.69400000000002
30
0
40
0.99999999999999645
210
0
220
0
230
1
0
LWPOLYLINE
5
191
100
AcDbEntity
8
0
100
AcDbPolyline
90
8
70
1
43
0.0
10
125.85786687737669
20
-61.110026048346526
42
0.41421366508482566
10
125.00677197184845
20
-59.980584521244111
10
113.31989765358409
20
-58.338101307591621
42
0.41421363128089989
10
112.19045644100601
20
-59.189196494901431
10
110.5479765224155
20
-70.876067317870209
42
0.4142135511051509
10
111.39907170437121
20
-72.005508292117838
10
123.08593949799692
20
-73.647988243450953
42
0.41421340202153079
10
124.21538043414755
20
-72.796893608995916
0
LWPOLYLINE
5
192
100
AcDbEntity
8
0
100
AcDbPolyline
90
8
70
1
43
0.0
10
89.012999151229877
20
-86.946864008903503
42
0.41421356237309509
10
88.012999151229877
20
-87.946864008903503
10
88.012999151229891
20
-99.748592061042814
42
0.41421356237309509
10
89.012999151229891
20
-100.7485920610428
10
100.81472720336919
20
-100.74859206104279
42
0.41421356237309509
10
101.81472720336919
20
-99.748592061042785
10
101.81472720336916
20
-87.946864008903489
42
0.41421356237309509
10
100.81472720336917
20
-86.946864008903489
0
LWPOLYLINE
5
193
100
AcDbEntity
8
0
100
AcDbPolyline
90
8
70
1
43
0.0
10
46.174510324941423
20
-101.43250937425836
42
0.41421356237307161
10
47.17451032494143
20
-100.43250937425839
10
47.174510324941423
20
-98.901775250059941
42
0.41421356237309509
10
46.174510324941423
20
-97.901775250059941
10
45.343100350946543
20
-97.901775250059941
42
0.41421356237309509
10
44.343100350946543
20
-98.901775250059941
10
44.34310035094655
20
-100.43250937425837
42
0.41421356237309509
10
45.34310035094655
20
-101.43250937425836
0
LWPOLYLINE
5
194
100
AcDbEntity
8
0
100
AcDbPolyline
90
8
70
1
43
0.0
10
64.808228052139313
20
-74.611322625160227
42
0.41421356237309509
10
65.808228052139299
20
-73.611322625160241
10
65.808228052139299
20
-61.809598388195042
42
0.41421356237310281
10
64.808228052139299
20
-60.809598388195035
10
53.00650000000001
20
-60.809598388195042
42
0.41421356237309509
10
52.006500000000017
20
-61.809598388195042
10
52.006500000000017
20
-73.611322625160241
42
0.41421356237309509
10
53.00650000000001
20
-74.611322625160241
0
LWPOLYLINE
5
195
100
AcDbEntity
8
0
100
AcDbPolyline
90
8
70
1
43
0.0
10
35.053002572991041
20
-109.45082539843651
42
0.41421356237309509
10
34.053002572991041
20
-110.45082539843649
10
34.053002572991041
20
-115.46200557990461
42
0.41421356237309109
10
35.053002572991034
20
-116.46200557990461
10
43.862007180289325
20
-116.46200557990461
42
0.41421356237309509
10
44.862007180289325
20
-115.46200557990461
10
44.862007180289325
20
-110.45082539843649
42
0.41421356237309509
10
43.862007180289325
20
-109.45082539843651
0
LWPOLYLINE
5
196
100
AcDbEntity
8
0
100
AcDbPolyline
90
8
70
1
43
0.0
10
71.022751688957214
20
-75.261405401229865
42
0.41421356237309509
10
70.022751688957214
20
-76.261405401229865
10
70.022751688957214
20
-88.063133453369161
42
0.41421356237308726
10
71.022751688957214
20
-89.063133453369147
10
82.824479741096511
20
-89.063133453369147
42
0.41421356237309509
10
83.824479741096511
20
-88.063133453369161
10
83.824479741096511
20
-76.261405401229865
42
0.41421356237309759
10
82.824479741096511
20
-75.261405401229865
0
LWPOLYLINE
5
197
100
AcDbEntity
8
0
100
AcDbPolyline
90
8
70
1
43
0.0
10
56.998781125193148
20
-130.44382243434941
42
0.41421355152607958
10
57.364806992254302
20
-129.07779718181047
10
51.463946323567384
20
-118.85719813615667
42
0.41421367297152573
10
50.097920725494454
20
-118.49117242582639
10
39.877325269177135
20
-124.39203616802943
42
0.41421360285494518
10
39.511299954970681
20
-125.75806169699564
10
45.412163885977151
20
-135.97865421801055
42
0.41421342213985901
10
46.778188931195416
20
-136.34467965191357
0
ENDSEC
0
SECTION
2
OBJECTS
0
DICTIONARY
5
C
100
AcDbDictionary
3
ACAD_GROUP
350
D
3
ACAD_MLINESTYLE
350
17
0
DICTIONARY
5
D
100
AcDbDictionary
0
DICTIONARY
5
1A
330
C
100
AcDbDictionary
0
DICTIONARY
5
17
100
AcDbDictionary
0
ENDSEC
0
EOF
